<svg id="logo" xmlns="http://www.w3.org/2000/svg" width="141.229" height="43.545" viewBox="0 0 141.229 43.545">
  <g id="Group_1350" data-name="Group 1350" transform="translate(-879.724 -578)">
    <g id="Group_1350-2" data-name="Group 1350" transform="translate(-12.178)" style="mix-blend-mode: normal;isolation: isolate">
      <path id="Path_2862" data-name="Path 2862" d="M900.892,597.545a9.537,9.537,0,0,1-4.452-1.058,8.066,8.066,0,0,1-3.291-3.2,10.537,10.537,0,0,1-1.247-5.366,11.229,11.229,0,0,1,.74-4.218,9.064,9.064,0,0,1,2.029-3.118,8.723,8.723,0,0,1,2.93-1.929,9.121,9.121,0,0,1,3.407-.652,7.528,7.528,0,0,1,3.379.739,8.966,8.966,0,0,1,2.479,1.755l-2.61,3.19a7.556,7.556,0,0,0-1.436-1,3.566,3.566,0,0,0-1.7-.391,3.516,3.516,0,0,0-2.044.652,4.517,4.517,0,0,0-1.509,1.871,6.909,6.909,0,0,0-.565,2.929,7.883,7.883,0,0,0,.508,3,4.115,4.115,0,0,0,1.421,1.87,3.62,3.62,0,0,0,2.131.637,3.854,3.854,0,0,0,1.957-.492,6.46,6.46,0,0,0,1.465-1.132l2.61,3.133a7.67,7.67,0,0,1-2.784,2.088A8.463,8.463,0,0,1,900.892,597.545Z"/>
      <path id="Path_2863" data-name="Path 2863" d="M911.158,597.2v-18.85h4.988v14.674h7.134V597.2Z"/>
      <path id="Path_2864" data-name="Path 2864" d="M934.764,597.545a8.793,8.793,0,0,1-4.582-1.173,7.974,7.974,0,0,1-3.074-3.379,11.755,11.755,0,0,1-1.1-5.307,11.484,11.484,0,0,1,1.1-5.264,7.739,7.739,0,0,1,3.074-3.292,9.855,9.855,0,0,1,9.164,0,7.745,7.745,0,0,1,3.074,3.292,11.5,11.5,0,0,1,1.1,5.264,11.768,11.768,0,0,1-1.1,5.307,7.98,7.98,0,0,1-3.074,3.379A8.793,8.793,0,0,1,934.764,597.545Zm0-4.292a2.98,2.98,0,0,0,1.958-.681,4.234,4.234,0,0,0,1.261-1.928,9,9,0,0,0,.435-2.958,8.615,8.615,0,0,0-.435-2.915,3.951,3.951,0,0,0-1.261-1.841,3.322,3.322,0,0,0-3.915,0,3.938,3.938,0,0,0-1.262,1.841,8.616,8.616,0,0,0-.435,2.915,9,9,0,0,0,.435,2.958,4.22,4.22,0,0,0,1.262,1.928A2.974,2.974,0,0,0,934.764,593.253Z"/>
      <path id="Path_2865" data-name="Path 2865" d="M951.062,597.2V582.524h-4.988v-4.176h14.964v4.176H956.05V597.2Z"/>
      <path id="Path_2866" data-name="Path 2866" d="M965.271,597.2v-18.85h4.989v7.018h5.626v-7.018h4.987V597.2h-4.987v-7.483H970.26V597.2Z"/>
      <path id="Path_2867" data-name="Path 2867" d="M986.5,597.2v-18.85h4.988V597.2Z"/>
      <path id="Path_2868" data-name="Path 2868" d="M997.113,597.2v-18.85h5.1l4.177,8.409,1.8,4.235h.117q-.176-1.538-.407-3.494a31.437,31.437,0,0,1-.231-3.7v-5.451h4.756V597.2h-5.105l-4.175-8.44-1.8-4.2h-.117q.176,1.6.406,3.524a30.67,30.67,0,0,1,.232,3.668V597.2Z"/>
      <path id="Path_2869" data-name="Path 2869" d="M1026.751,597.545a10.759,10.759,0,0,1-4.8-1.058,8.063,8.063,0,0,1-3.436-3.2,10.347,10.347,0,0,1-1.277-5.366,11.069,11.069,0,0,1,.754-4.218,9.163,9.163,0,0,1,2.06-3.118,8.731,8.731,0,0,1,3-1.929,9.9,9.9,0,0,1,3.582-.652,8.3,8.3,0,0,1,3.625.739,8.791,8.791,0,0,1,2.523,1.755l-2.61,3.19a7.168,7.168,0,0,0-1.464-1,4.545,4.545,0,0,0-4.191.261,4.409,4.409,0,0,0-1.595,1.871,6.756,6.756,0,0,0-.58,2.929,7.51,7.51,0,0,0,.536,3,3.9,3.9,0,0,0,1.625,1.87,5.4,5.4,0,0,0,2.769.637,3.658,3.658,0,0,0,.8-.086,1.914,1.914,0,0,0,.653-.261v-2.611h-2.784v-4.059h7.192v8.99a8.158,8.158,0,0,1-2.683,1.638A9.833,9.833,0,0,1,1026.751,597.545Z"/>
    </g>
    <g id="Group_1351" data-name="Group 1351" transform="translate(-11.829)" style="mix-blend-mode: normal;isolation: isolate">
      <path id="Path_2870" data-name="Path 2870" d="M898.688,621.545a11.164,11.164,0,0,1-3.683-.667,10.23,10.23,0,0,1-3.451-2.029l2.842-3.423a9.513,9.513,0,0,0,2.189,1.32,5.615,5.615,0,0,0,2.219.507,2.959,2.959,0,0,0,1.638-.348,1.126,1.126,0,0,0,.508-.986.946.946,0,0,0-.3-.739,3.226,3.226,0,0,0-.871-.522q-.566-.246-1.377-.566l-2.349-.986a7.153,7.153,0,0,1-1.885-1.116,5.315,5.315,0,0,1-1.392-1.74,5.223,5.223,0,0,1-.522-2.393,5.1,5.1,0,0,1,.9-2.943,6.432,6.432,0,0,1,2.479-2.117,7.984,7.984,0,0,1,3.64-.8,9.353,9.353,0,0,1,3.292.624,8.461,8.461,0,0,1,2.972,1.9l-2.494,3.132a9.022,9.022,0,0,0-1.842-1.014,5.2,5.2,0,0,0-1.928-.349,2.787,2.787,0,0,0-1.435.319,1.044,1.044,0,0,0-.537.957.966.966,0,0,0,.333.74,3.1,3.1,0,0,0,.972.55q.637.247,1.479.6l2.291.9a6.727,6.727,0,0,1,2,1.173,4.821,4.821,0,0,1,1.247,1.7,5.631,5.631,0,0,1,.435,2.291,5.522,5.522,0,0,1-.856,2.971,6.125,6.125,0,0,1-2.508,2.219A8.738,8.738,0,0,1,898.688,621.545Z"/>
      <path id="Path_2871" data-name="Path 2871" d="M913.536,621.2V606.523h-4.988v-4.175h14.964v4.175h-4.988V621.2Z"/>
      <path id="Path_2872" data-name="Path 2872" d="M934.822,621.545a8.793,8.793,0,0,1-4.582-1.174,7.962,7.962,0,0,1-3.074-3.379,11.75,11.75,0,0,1-1.1-5.306,11.478,11.478,0,0,1,1.1-5.264,7.733,7.733,0,0,1,3.074-3.292,9.847,9.847,0,0,1,9.164,0,7.74,7.74,0,0,1,3.074,3.292,11.492,11.492,0,0,1,1.1,5.264,11.764,11.764,0,0,1-1.1,5.306,7.968,7.968,0,0,1-3.074,3.379A8.793,8.793,0,0,1,934.822,621.545Zm0-4.292a2.979,2.979,0,0,0,1.958-.682,4.224,4.224,0,0,0,1.261-1.927,9,9,0,0,0,.435-2.958,8.612,8.612,0,0,0-.435-2.915,3.939,3.939,0,0,0-1.261-1.841,3.318,3.318,0,0,0-3.915,0,3.933,3.933,0,0,0-1.262,1.841,8.611,8.611,0,0,0-.435,2.915,9,9,0,0,0,.435,2.958,4.216,4.216,0,0,0,1.262,1.927A2.976,2.976,0,0,0,934.822,617.253Z"/>
      <path id="Path_2873" data-name="Path 2873" d="M948.394,621.2V602.348h7.134a12.444,12.444,0,0,1,3.741.536,5.487,5.487,0,0,1,2.754,1.87,5.831,5.831,0,0,1,1.045,3.684,5.741,5.741,0,0,1-3.8,5.77,10.209,10.209,0,0,1-3.741.667h-2.146V621.2Zm4.988-10.265h1.8a3.436,3.436,0,0,0,2.247-.639,2.275,2.275,0,0,0,.769-1.855,1.8,1.8,0,0,0-.769-1.683,4.4,4.4,0,0,0-2.247-.464h-1.8Zm5.161,10.265-3.914-7.627,3.364-3.3,6.118,10.932Z"/>
      <path id="Path_2874" data-name="Path 2874" d="M968.113,621.2V602.348h12.18v4.175H973.1v2.958h6.148v4.176H973.1v3.364h7.482V621.2Z"/>
    </g>
    <g id="logo-2" transform="translate(-11.829)" style="mix-blend-mode: normal;isolation: isolate">
      <g id="Group_1352" data-name="Group 1352" style="mix-blend-mode: normal;isolation: isolate">
        <path id="Path_2875" data-name="Path 2875" d="M989.935,613.244a5.233,5.233,0,0,1,1.336.149,2.546,2.546,0,0,1,.91.423,1.651,1.651,0,0,1,.52.665,2.245,2.245,0,0,1,.165.88,1.734,1.734,0,0,1-.083.537,1.534,1.534,0,0,1-.256.479,1.907,1.907,0,0,1-.439.4,2.689,2.689,0,0,1-.636.308q1.639.367,1.64,1.77a2.251,2.251,0,0,1-.194.936,2.048,2.048,0,0,1-.56.739,2.665,2.665,0,0,1-.907.487,3.956,3.956,0,0,1-1.233.176h-3v-7.953Zm-1.26,1.145v2.3h1.177a1.977,1.977,0,0,0,1.147-.276,1,1,0,0,0,.388-.874,1.036,1.036,0,0,0-.353-.886,1.845,1.845,0,0,0-1.1-.263Zm1.5,5.653a2.1,2.1,0,0,0,.693-.1,1.208,1.208,0,0,0,.448-.263.968.968,0,0,0,.242-.386,1.437,1.437,0,0,0,.074-.467,1.243,1.243,0,0,0-.082-.465.878.878,0,0,0-.259-.352,1.216,1.216,0,0,0-.453-.223,2.549,2.549,0,0,0-.669-.077h-1.49v2.332Z"/>
        <path id="Path_2876" data-name="Path 2876" d="M994.973,618.546a2.628,2.628,0,0,0,.154.751,1.513,1.513,0,0,0,.318.522,1.247,1.247,0,0,0,.471.309,1.729,1.729,0,0,0,.6.1,1.84,1.84,0,0,0,.568-.077,2.548,2.548,0,0,0,.418-.171c.119-.061.224-.119.313-.169a.525.525,0,0,1,.262-.078.282.282,0,0,1,.253.126l.391.495a2.279,2.279,0,0,1-.506.444,2.912,2.912,0,0,1-.586.286,3.212,3.212,0,0,1-.621.15,4.356,4.356,0,0,1-.614.044,3.015,3.015,0,0,1-1.094-.194,2.453,2.453,0,0,1-.88-.578,2.716,2.716,0,0,1-.589-.946,3.656,3.656,0,0,1-.215-1.306,3.114,3.114,0,0,1,.188-1.086,2.606,2.606,0,0,1,.536-.886,2.5,2.5,0,0,1,.852-.6,2.8,2.8,0,0,1,1.136-.221,2.748,2.748,0,0,1,.984.171,2.122,2.122,0,0,1,.776.5,2.29,2.29,0,0,1,.509.8,2.984,2.984,0,0,1,.184,1.085.885.885,0,0,1-.066.416.272.272,0,0,1-.253.107Zm2.59-.819a1.652,1.652,0,0,0-.074-.5,1.2,1.2,0,0,0-.223-.41,1.036,1.036,0,0,0-.376-.277,1.3,1.3,0,0,0-.532-.1,1.259,1.259,0,0,0-.926.336,1.642,1.642,0,0,0-.432.952Z"/>
      </g>
    </g>
  </g>
</svg>
