<svg xmlns="http://www.w3.org/2000/svg" width="223.99" height="111.854" viewBox="0 0 223.99 111.854">
  <g id="layer1" transform="translate(1003.372 -171.811)">
    <path id="path4147" d="M-839.968,171.885a3.258,3.258,0,0,0-2.452.413c-1.588,1.045-1.892,2.748-2.242,4.019a17.478,17.478,0,0,0-.21,6.342c.351,3.914,1.7,7.469,2.3,10.94q.537,3.114.954,6.251c-1.1,2.6-2.236,5.182-3.353,7.7-2.574,5.793-5.531,11.451-8.363,17.208-3.011,6.119-5.768,12.309-9.045,18.159-2.307,4.118-3.651,6.783-6.037,9.781a12.179,12.179,0,0,1-2.5,2.465,1.539,1.539,0,0,1-1.11.193c-.176-.061-.371-.25-.612-.776s-.442-1.271-.722-2.015a33.169,33.169,0,0,1-1.794-9.87,35.537,35.537,0,0,1,.239-5.218q2.242-6.03,4.64-12.02c2.832-7.081,6.1-14.035,9.005-21.188,1.541-3.787,3.546-7.591,4.6-11.847.219-.888.616-1.964.864-3.136a5.946,5.946,0,0,0-.255-3.817,4.452,4.452,0,0,0-3.779-2.525c-2.384-.165-4.255,1.348-5.618,2.549-2.1,1.853-3.193,4.368-4.241,6.521a54.526,54.526,0,0,0-3.55,10.2,116.058,116.058,0,0,0-2.665,15.1c-.511,4.155-.572,8.282-.867,12.315-.174,2.39-.494,4.848-.739,7.347-.91,2.457-1.825,4.913-2.659,7.4-.276.823-.474,1.647-.732,2.473-.6-1.682-1.35-3.228-1.834-4.629a29.557,29.557,0,0,1-1.382-4.325,39.37,39.37,0,0,1-.113-4.863,1.31,1.31,0,0,0-2.478-.649s-3.233,6.366-5.239,9.557c-.42.668-1.852,2.506-2.571,3.4.218-1.231,1.4-4.923,1.532-5.877.414-2.894,1.435-5.791.626-6.92-.493-.688-1.826-1.4-2.533-.182,0,0-2.76,4.748-4.109,7.187-1.09,1.971-1.84,3.427-3.165,5.922,1.014-5.668,2.746-11.306,3.755-17.209.4-2.359,1.9-5.33.948-8.519a5.177,5.177,0,0,0-.774-1.609,2.691,2.691,0,0,0-2-1.192,3.756,3.756,0,0,0-.387.044c.493-1.92,1.018-3.832,1.409-5.778.477-2.373,1.6-5.18.939-8.2a6.7,6.7,0,0,0-3.265-4.612c-1.735-1-3.611-.545-4.965-.241a21.819,21.819,0,0,0-7.7,3.468,51.743,51.743,0,0,0-10.643,9.645,47.891,47.891,0,0,0-4.72,7.1,11.54,11.54,0,0,0-2.632-2.6c-3.414-2.325-7.687-2.073-11.174-2.152A43.176,43.176,0,0,0-955.6,215.3a92.818,92.818,0,0,0-18.126,7.5,129.932,129.932,0,0,0-18.269,11.6,106.068,106.068,0,0,0-10.659,9.586c-1.489,1.773-.456,3.55,1.194,2.047a132.108,132.108,0,0,1,10.278-9.184,137.314,137.314,0,0,1,18.658-11.719,90.445,90.445,0,0,1,17.609-7.3,40.687,40.687,0,0,1,11.465-1.583c3.606.082,7.308.03,9.758,1.7A9.944,9.944,0,0,1-930.968,221c-.443.862-.94,1.709-1.357,2.575a74.2,74.2,0,0,0-4.79,12.949,117.92,117.92,0,0,0-3.337,19.351c-.425,4.426-.959,9.259-.239,14.166a13.121,13.121,0,0,0,1.147,3.457,5.451,5.451,0,0,0,1.181,1.687,3.357,3.357,0,0,0,2.12.9,3.149,3.149,0,0,0,2.115-.757,5.234,5.234,0,0,0,1.19-1.548,21.732,21.732,0,0,0,1.335-3,115.776,115.776,0,0,0,4.4-15.527,96.768,96.768,0,0,0,2.162-17.129c.087-4.087.307-8.514-1.087-12.719a32.576,32.576,0,0,0-1.869-4.43,48.435,48.435,0,0,1,5.154-8.04,49.2,49.2,0,0,1,10.1-9.154,19.39,19.39,0,0,1,6.795-3.07,5.13,5.13,0,0,1,3.083-.044,4.382,4.382,0,0,1,2.01,2.9c.438,2.009-.41,4.452-.947,7.123-.533,2.654-1.2,5.287-1.927,7.905-.206.212-.471.381-.647.6-.945,1.172-1.685,2.484-2.348,3.3a58.5,58.5,0,0,0-6.318,10.292,98.389,98.389,0,0,0-6.521,15.344,35.84,35.84,0,0,0-1.859,6.912c-.2,1.844,1.411,2.237,2.538,1.611a8.165,8.165,0,0,0,2.481-2.616,52.027,52.027,0,0,0,4.827-7.8,134.776,134.776,0,0,0,7.366-17.324q1.572-4.475,2.868-9.061a1.511,1.511,0,0,1,.868-.293c-.014-.015,0-.007.075,0-.025,0-.05,0-.075,0a.794.794,0,0,1,.1.119,3.111,3.111,0,0,1,.379.813c.572,1.91-.528,4.438-1.021,7.326-1.012,5.918-2.892,11.8-3.92,17.966-.371,2.229-.925,5.166-1.02,6.215-.131,1.429,2.292,2.384,2.958,1.114.489-.933,4.062-8.308,6.27-12.3.306-.555.542-.943.953-1.668-.107.942-.249,1.711-.425,2.557-.427,2.048-1.5,4.734-1.529,6.087-.038,1.891,2.009,3.508,3.623,1.838a53.544,53.544,0,0,0,4.355-6.295c1.212-1.926,1.885-3.35,3-5.47.018.147.005.327.027.464a28.364,28.364,0,0,0,1.491,4.745c.839,2.432,2.12,4.414,2.4,6.344a24.461,24.461,0,0,1,.215,3.166c-.9,3.161-1.841,6.337-2.8,9.445-1.184,3.857-2.823,7.714-3.776,11.886-.671,2.936-1.51,5.471-1.2,8.458.086.845,1.54,1.91,2.4.841a31.712,31.712,0,0,0,3.3-5.907,59.7,59.7,0,0,0,3.388-12.68,69.391,69.391,0,0,0,1.326-11.75c.731-2.56,1.429-5.166,2.268-7.668.042-.127.092-.251.135-.377a32.494,32.494,0,0,0,1.748,8.65c.207.551.417,1.363.791,2.183a3.814,3.814,0,0,0,2.133,2.161,4.066,4.066,0,0,0,3.083-.293,12.178,12.178,0,0,0,3.048-2.813A66.99,66.99,0,0,0-860.1,244.2c3.356-5.99,6.13-12.225,9.111-18.283,2.813-5.718,5.77-11.7,8.318-17.694.55-1.295,1.076-2.586,1.59-3.882.081.734.163,1.468.236,2.2.247,2.49.376,4.9.57,7.515.093,1.256.16,2.628.293,3.858-2.842,3.305-5.745,6.545-8.506,10.045-1.824,2.312-3.018,3.939-5.238,7.139a3.779,3.779,0,0,0-.563,2.669,5.275,5.275,0,0,0,1.217,2.553,6.561,6.561,0,0,0,3,2.081,9.664,9.664,0,0,0,5.974.265,8.96,8.96,0,0,0,4.284-3.507c1.353-1.837,1.6-3.935,2-5.832a37.426,37.426,0,0,0,.727-8.172c-.023-2.153.052-4.316-.173-6.391.93-1.1,1.89-2.152,2.779-3.294.258-.331.645-.9.918-1.262-.394.956-.864,1.869-1.172,2.869a23.876,23.876,0,0,0-1.145,7.276,6.318,6.318,0,0,0,.872,4.1c.7.948,1.325,1.9,2.845,1.7a5,5,0,0,0,2.9-1.795c.593-.706,1.31-1.361,1.7-1.751,1.243-1.253,3.137-3.543,4.336-4.945a12.849,12.849,0,0,0-.293,2.654,3.039,3.039,0,0,0,.513,1.653,2.991,2.991,0,0,0,1.849,1.249,3.442,3.442,0,0,0,2.678-.767c.642-.474,1.143-.992,1.508-1.275a31.953,31.953,0,0,0,4.991-5.159,34.769,34.769,0,0,0,2.308-3.328,9.764,9.764,0,0,1,.891,1.25,17.83,17.83,0,0,1,.728,4.136c.158,1.087.2,2.134.34,3.206-.547.68-1.111,1.361-1.631,2.028a49.338,49.338,0,0,0-4.362,6.547,44.223,44.223,0,0,0-4.245,9.534c-.8,2.915-2.034,6.375-1.068,9.858a6.82,6.82,0,0,0,3.573,4.534,5.083,5.083,0,0,0,4.412-.277,8.947,8.947,0,0,0,3.632-4.283,23.652,23.652,0,0,0,1.8-7.361,94.81,94.81,0,0,0,1-16.063c-.028-1.269-.252-2.469-.39-3.707a27.23,27.23,0,0,1,3.761-3.454,31.164,31.164,0,0,1,9.457-5.174c2.56-.874,5.142-1.688,7.347-1.281a7.12,7.12,0,0,1,1.708.511c1.692.763-.119,2.827-.647,3.434a25.1,25.1,0,0,1-3.458,2.887,28.3,28.3,0,0,1-5.643,3.556,11.932,11.932,0,0,1-4.819,1.417c-1.854.177-2.054,1.795.005,1.886a11.254,11.254,0,0,0,5.91-1.045,24.5,24.5,0,0,0,6.341-3.648,20.992,20.992,0,0,0,3.881-3.365,7.705,7.705,0,0,0,1.286-2.486,4.128,4.128,0,0,0,.343-2.837,3.77,3.77,0,0,0-2.048-2.154,9.182,9.182,0,0,0-2.382-.732c-3.117-.576-6.109.5-8.671,1.378a33.735,33.735,0,0,0-10.221,5.587,29.007,29.007,0,0,0-2.508,2.122c-.047-.325-.058-.671-.1-.994a16.29,16.29,0,0,0-.93-4.828,9.325,9.325,0,0,0-1.48-2.15c-.52-.613-.977-1.083-.977-1.083a1.311,1.311,0,0,0-2.045.213s-2.059,3.217-3.116,4.505a29.946,29.946,0,0,1-4.573,4.751c-.587.455-1.063.944-1.457,1.235s-.557.315-.637.3a.95.95,0,0,1-.215-.219,2.449,2.449,0,0,1-.347-.77c-.163-.671.38-1.832.821-3.389.661-2.334,2.643-7.244,2.643-7.244a1.31,1.31,0,0,0-2.371-1.108s-2.909,5.433-4.562,7.664a49.464,49.464,0,0,1-4.719,5.185c-.682.687-1.217,1.207-1.653,1.725-.741.78-1.158.848-1.82.411a5.646,5.646,0,0,1-.358-2.572,21.354,21.354,0,0,1,1.03-6.472,57.779,57.779,0,0,1,4.8-10.782c1.1-1.991,2.756-4.622,4.455-7.215,1.653-.724,3.36-1.4,5.071-2.113,3.078-1.287,5.975-2.375,9.147-3.415,3.334-1.093,6.687-2.185,10.049-3.219,1.378-.423,1.271-2.012-.163-2.005a1.3,1.3,0,0,0-.481.042s-6.533,1.617-10.063,2.774c-3.237,1.061-6.355,2.091-9.5,3.4-.47.2-.952.392-1.43.587,2.177-3.213,3.976-5.771,3.991-5.793l.017-.026h0a1.31,1.31,0,0,0-2.163-1.478h0s-4.121,5.158-6.121,8.16c-.259.39-.523.83-.8,1.3a35.5,35.5,0,0,0-3.876,2.1,17.959,17.959,0,0,0-3.818,3.161,22.8,22.8,0,0,0-2.423,3.533c-.869,1.534,1.588,2.671,2.428,1.121a25.619,25.619,0,0,1,1.948-2.906,15.356,15.356,0,0,1,3.213-2.658,83.473,83.473,0,0,1-8.6,11.44c-.36.411-.732.845-1.076,1.271-.034-.371-.086-.753-.113-1.121-.187-2.517-.439-5.186-.7-7.812-.219-2.211-.5-4.412-.825-6.608.926-2.482,1.832-4.992,2.761-7.573a53.739,53.739,0,0,0,2.343-8.063,19.186,19.186,0,0,0,.212-4.526c-.039-1.108-1.089-1.129-1.169-.015a22.678,22.678,0,0,1-.5,3.437,58.044,58.044,0,0,1-2.495,8.111c-.556,1.546-1.157,3.1-1.779,4.663-.138-.839-.277-1.678-.422-2.518-.654-3.8-1.647-7.241-1.956-10.68a15.82,15.82,0,0,1,.126-5.411,4.157,4.157,0,0,1,1.244-2.361,2.826,2.826,0,0,1,1.752-.32,2.473,2.473,0,0,1,1.418.965c.548.682.815,1.016,1.217,1.528.667.851,1.587.438,1.234-.444a8,8,0,0,0-.992-2.06,5.467,5.467,0,0,0-2.288-1.973,6.082,6.082,0,0,0-1.417-.464Zm-20.055,13.672a2.409,2.409,0,0,1,1.584,1.019,3.429,3.429,0,0,1,.067,2.166c-.192.912-.574,1.955-.845,3.048-.95,3.847-2.875,7.546-4.48,11.491-2.876,7.068-5.713,13.345-8.583,20.519-.449,1.121-1.8,4.676-2.243,5.8.2-3.453.8-8.635,1.208-11.966a113.748,113.748,0,0,1,2.6-14.763,52.13,52.13,0,0,1,3.37-9.711c1.071-2.2,2.086-4.351,3.617-5.7,1.22-1.075,2.653-1.974,3.7-1.9Zm20.355,36.066c.1,1.17.229,2.345.242,3.5a35.563,35.563,0,0,1-.464,7.635,12.892,12.892,0,0,1-1.769,4.89,8.3,8.3,0,0,1-3.489,2.765,6.593,6.593,0,0,1-3.942,0,5.215,5.215,0,0,1-2.088-.99,2.326,2.326,0,0,1-.988-1.3,2.948,2.948,0,0,1,.6-1.53c2.206-3.18,3.344-4.728,5.142-7.008,2.134-2.7,4.444-5.319,6.759-7.958Zm32.345,7.352c.014.287.086.588.093.874a92.121,92.121,0,0,1-.969,15.615,22.583,22.583,0,0,1-1.552,6.581,7.062,7.062,0,0,1-2.49,3.125,2.926,2.926,0,0,1-2.139.211,4.663,4.663,0,0,1-2.116-2.84c-.678-2.443.242-5.45,1.069-8.465a42.321,42.321,0,0,1,4.014-8.962,46.786,46.786,0,0,1,4.09-6.139Zm-98.762-2.782c-.208.616-.377,1.243-.592,1.855a132.275,132.275,0,0,1-7.219,16.99,66.73,66.73,0,0,1-3.886,6.711,26.567,26.567,0,0,1,.724-2.826,108.5,108.5,0,0,1,6.351-14.933,69.16,69.16,0,0,1,4.622-7.8Zm-23.49-2.217c.315.763.7,1.48.961,2.256,1.19,3.592,1.041,7.713.953,11.839a94.281,94.281,0,0,1-2.108,16.664,103,103,0,0,1-4.184,14.891,22.4,22.4,0,0,1-1.286,2.907,3.047,3.047,0,0,1-.586.805c-.154.131-.185.138-.32.133a.569.569,0,0,1-.434-.205,3.114,3.114,0,0,1-.6-.9,11.628,11.628,0,0,1-.987-3.029c-.611-4.012-.123-8.55.324-13.211a115.433,115.433,0,0,1,3.259-18.922,71.483,71.483,0,0,1,4.62-12.489c.121-.252.266-.489.389-.74Z" fill-rule="evenodd"/>
  </g>
</svg>
